<svg width="326" height="44" viewBox="0 0 326 44" fill="none" xmlns="http://www.w3.org/2000/svg">
<path d="M310.625 43.4547C308.086 43.4547 305.605 43.1516 303.18 42.5454C300.755 41.9013 298.823 41.1057 297.383 40.1585L300.338 33.7936C301.702 34.665 303.35 35.3848 305.283 35.9531C307.215 36.4835 309.109 36.7487 310.965 36.7487C314.716 36.7487 316.592 35.8205 316.592 33.964C316.592 33.0927 316.08 32.4675 315.057 32.0887C314.034 31.7098 312.462 31.3878 310.34 31.1225C307.84 30.7437 305.775 30.308 304.146 29.8155C302.517 29.3229 301.096 28.4515 299.884 27.2013C298.709 25.951 298.122 24.1703 298.122 21.8593C298.122 19.927 298.671 18.2221 299.77 16.7446C300.907 15.2291 302.536 14.0546 304.657 13.2211C306.817 12.3876 309.355 11.9708 312.273 11.9708C314.432 11.9708 316.573 12.2171 318.694 12.7096C320.854 13.1643 322.635 13.8083 324.036 14.6418L321.081 20.95C318.391 19.4345 315.455 18.6768 312.273 18.6768C310.378 18.6768 308.958 18.942 308.01 19.4724C307.063 20.0028 306.59 20.6848 306.59 21.5183C306.59 22.4654 307.101 23.1285 308.124 23.5073C309.147 23.8862 310.776 24.2461 313.011 24.5871C315.512 25.0039 317.558 25.4585 319.149 25.951C320.74 26.4057 322.123 27.2581 323.298 28.5084C324.472 29.7586 325.059 31.5014 325.059 33.7367C325.059 35.6311 324.491 37.317 323.354 38.7946C322.218 40.2722 320.551 41.4277 318.353 42.2612C316.194 43.0569 313.618 43.4547 310.625 43.4547Z" fill="#FF9369"/>
<path d="M279.888 36.3509C281.479 36.3509 282.881 36.1236 284.093 35.669C285.343 35.1764 286.499 34.4187 287.56 33.3958L292.276 38.5105C289.397 41.8066 285.192 43.4547 279.66 43.4547C276.212 43.4547 273.163 42.7916 270.511 41.4656C267.858 40.1017 265.813 38.2263 264.373 35.8394C262.933 33.4526 262.213 30.7437 262.213 27.7127C262.213 24.7197 262.914 22.0297 264.316 19.6429C265.756 17.2181 267.707 15.3428 270.17 14.0167C272.67 12.6528 275.474 11.9708 278.58 11.9708C281.498 11.9708 284.15 12.596 286.537 13.8462C288.923 15.0586 290.818 16.8393 292.22 19.1882C293.659 21.4993 294.379 24.2461 294.379 27.4286L271.761 31.8045C272.405 33.32 273.409 34.4566 274.773 35.2143C276.175 35.972 277.88 36.3509 279.888 36.3509ZM278.58 18.6768C276.345 18.6768 274.527 19.3966 273.125 20.8363C271.723 22.276 270.984 24.2651 270.908 26.8035L285.798 23.9051C285.381 22.3139 284.529 21.0447 283.24 20.0975C281.952 19.1504 280.399 18.6768 278.58 18.6768Z" fill="#FF9369"/>
<path d="M256.281 0.832153V43H247.814V39.4766C245.616 42.1286 242.434 43.4547 238.266 43.4547C235.387 43.4547 232.773 42.8106 230.424 41.5224C228.113 40.2343 226.294 38.3968 224.968 36.0099C223.642 33.6231 222.979 30.8573 222.979 27.7127C222.979 24.5682 223.642 21.8024 224.968 19.4156C226.294 17.0287 228.113 15.1912 230.424 13.9031C232.773 12.6149 235.387 11.9708 238.266 11.9708C242.168 11.9708 245.218 13.2022 247.416 15.6648V0.832153H256.281ZM239.801 36.1804C242.036 36.1804 243.892 35.4227 245.37 33.9072C246.847 32.3539 247.586 30.289 247.586 27.7127C247.586 25.1365 246.847 23.0906 245.37 21.5751C243.892 20.0218 242.036 19.2451 239.801 19.2451C237.527 19.2451 235.652 20.0218 234.174 21.5751C232.697 23.0906 231.958 25.1365 231.958 27.7127C231.958 30.289 232.697 32.3539 234.174 33.9072C235.652 35.4227 237.527 36.1804 239.801 36.1804Z" fill="#FF9369"/>
<path d="M216.93 12.4255V43H208.463V39.4766C206.265 42.1286 203.083 43.4547 198.915 43.4547C196.036 43.4547 193.422 42.8106 191.073 41.5224C188.762 40.2343 186.943 38.3968 185.617 36.0099C184.291 33.6231 183.628 30.8573 183.628 27.7127C183.628 24.5682 184.291 21.8024 185.617 19.4156C186.943 17.0287 188.762 15.1912 191.073 13.9031C193.422 12.6149 196.036 11.9708 198.915 11.9708C202.818 11.9708 205.868 13.2022 208.065 15.6648V12.4255H216.93ZM200.45 36.1804C202.685 36.1804 204.542 35.4227 206.019 33.9072C207.497 32.3539 208.236 30.289 208.236 27.7127C208.236 25.1365 207.497 23.0906 206.019 21.5751C204.542 20.0218 202.685 19.2451 200.45 19.2451C198.177 19.2451 196.301 20.0218 194.824 21.5751C193.346 23.0906 192.607 25.1365 192.607 27.7127C192.607 30.289 193.346 32.3539 194.824 33.9072C196.301 35.4227 198.177 36.1804 200.45 36.1804Z" fill="#FF9369"/>
<path d="M164.859 11.9708C168.648 11.9708 171.698 13.1074 174.009 15.3806C176.358 17.6538 177.532 21.0257 177.532 25.4964V43H168.667V26.8603C168.667 24.4355 168.136 22.6359 167.075 21.4614C166.015 20.2491 164.48 19.6429 162.472 19.6429C160.237 19.6429 158.456 20.3438 157.13 21.7456C155.804 23.1095 155.141 25.1554 155.141 27.8832V43H146.276V0.832153H155.141V15.608C156.316 14.4335 157.736 13.5431 159.403 12.9369C161.07 12.2929 162.889 11.9708 164.859 11.9708Z" fill="#FF9369"/>
<path d="M123.731 43.682C120.587 43.682 117.537 43.2652 114.582 42.4317C111.665 41.5603 109.316 40.4427 107.535 39.0787L110.661 32.1455C112.365 33.3957 114.392 34.3997 116.741 35.1575C119.09 35.9152 121.439 36.2941 123.788 36.2941C126.402 36.2941 128.335 35.9152 129.585 35.1575C130.835 34.3619 131.46 33.32 131.46 32.0318C131.46 31.0847 131.081 30.308 130.324 29.7018C129.604 29.0577 128.657 28.5463 127.482 28.1674C126.346 27.7885 124.792 27.3718 122.822 26.9171C119.791 26.1973 117.31 25.4774 115.377 24.7576C113.445 24.0377 111.778 22.8822 110.376 21.291C109.012 19.6997 108.331 17.5781 108.331 14.926C108.331 12.6149 108.956 10.5311 110.206 8.6747C111.456 6.78036 113.332 5.28384 115.832 4.18512C118.37 3.08641 121.458 2.53706 125.095 2.53706C127.634 2.53706 130.115 2.84015 132.54 3.44633C134.965 4.05252 137.087 4.92392 138.905 6.06052L136.064 13.0506C132.389 10.9668 128.714 9.92496 125.039 9.92496C122.462 9.92496 120.549 10.3417 119.299 11.1752C118.086 12.0087 117.48 13.1074 117.48 14.4714C117.48 15.8353 118.181 16.8582 119.583 17.5402C121.023 18.1843 123.201 18.8283 126.118 19.4724C129.149 20.1922 131.631 20.9121 133.563 21.6319C135.495 22.3518 137.143 23.4884 138.507 25.0417C139.909 26.5951 140.61 28.6978 140.61 31.3499C140.61 33.6231 139.966 35.7068 138.678 37.6012C137.427 39.4576 135.533 40.9352 132.995 42.0339C130.456 43.1326 127.369 43.682 123.731 43.682Z" fill="#FF9369"/>
<path d="M87.3448 43.4547C84.1244 43.4547 81.2261 42.7916 78.6498 41.4656C76.1114 40.1017 74.1223 38.2263 72.6826 35.8394C71.2429 33.4526 70.5231 30.7437 70.5231 27.7127C70.5231 24.6818 71.2429 21.9729 72.6826 19.5861C74.1223 17.1992 76.1114 15.3428 78.6498 14.0167C81.2261 12.6528 84.1244 11.9708 87.3448 11.9708C90.5651 11.9708 93.4445 12.6528 95.9829 14.0167C98.5213 15.3428 100.51 17.1992 101.95 19.5861C103.39 21.9729 104.11 24.6818 104.11 27.7127C104.11 30.7437 103.39 33.4526 101.95 35.8394C100.51 38.2263 98.5213 40.1017 95.9829 41.4656C93.4445 42.7916 90.5651 43.4547 87.3448 43.4547ZM87.3448 36.1804C89.618 36.1804 91.4744 35.4227 92.9141 33.9072C94.3917 32.3539 95.1305 30.289 95.1305 27.7127C95.1305 25.1365 94.3917 23.0906 92.9141 21.5751C91.4744 20.0218 89.618 19.2451 87.3448 19.2451C85.0716 19.2451 83.1962 20.0218 81.7186 21.5751C80.241 23.0906 79.5022 25.1365 79.5022 27.7127C79.5022 30.289 80.241 32.3539 81.7186 33.9072C83.1962 35.4227 85.0716 36.1804 87.3448 36.1804Z" fill="#FF9369"/>
<path d="M54.3843 43.4547C51.126 43.4547 48.1898 42.7916 45.5756 41.4656C42.9993 40.1017 40.9724 38.2263 39.4948 35.8394C38.0551 33.4526 37.3353 30.7437 37.3353 27.7127C37.3353 24.6818 38.0551 21.9729 39.4948 19.5861C40.9724 17.1992 42.9993 15.3428 45.5756 14.0167C48.1898 12.6528 51.126 11.9708 54.3843 11.9708C57.6046 11.9708 60.4082 12.6528 62.7951 14.0167C65.2199 15.3428 66.9816 17.256 68.0803 19.7565L61.2039 23.4505C59.6126 20.6469 57.3205 19.2451 54.3274 19.2451C52.0164 19.2451 50.1031 20.0028 48.5876 21.5183C47.0721 23.0337 46.3144 25.0986 46.3144 27.7127C46.3144 30.3269 47.0721 32.3918 48.5876 33.9072C50.1031 35.4227 52.0164 36.1804 54.3274 36.1804C57.3584 36.1804 59.6505 34.7786 61.2039 31.975L68.0803 35.7258C66.9816 38.1505 65.2199 40.0449 62.7951 41.4088C60.4082 42.7727 57.6046 43.4547 54.3843 43.4547Z" fill="#FF9369"/>
<path d="M35.2237 39.5902C33.3293 40.8784 30.9425 41.8824 28.0631 42.6022C25.2216 43.3221 22.1906 43.682 18.9703 43.682C14.9543 43.682 11.5445 43.1895 8.74087 42.2044C5.93726 41.1815 3.8156 39.7797 2.37591 37.999C0.936217 36.1804 0.21637 34.1156 0.21637 31.8045C0.21637 29.6829 0.803613 27.8075 1.9781 26.1783C3.15259 24.5492 4.76277 23.3368 6.80865 22.5412C5.2553 21.7077 4.04292 20.5711 3.17153 19.1314C2.33802 17.6917 1.92127 16.0815 1.92127 14.3009C1.92127 12.1413 2.58429 10.1712 3.91032 8.39055C5.23635 6.60987 7.24435 5.18912 9.9343 4.1283C12.6243 3.06747 15.9204 2.53706 19.8227 2.53706C22.399 2.53706 24.9185 2.80226 27.3811 3.33268C29.8437 3.8252 31.9843 4.50716 33.8029 5.37855L31.2456 12.4255C27.76 10.7963 24.066 9.98179 20.1637 9.98179C17.2085 9.98179 14.9732 10.4364 13.4578 11.3457C11.9802 12.2171 11.2414 13.4105 11.2414 14.926C11.2414 16.3278 11.7339 17.4076 12.719 18.1653C13.7419 18.8852 15.2763 19.2451 17.3222 19.2451H28.1767V26.5193H16.7539C14.4428 26.5193 12.6621 26.9171 11.4119 27.7127C10.1616 28.5084 9.53649 29.6639 9.53649 31.1794C9.53649 32.7706 10.3321 34.0209 11.9233 34.9302C13.5525 35.8016 16.0341 36.2372 19.3681 36.2372C21.7171 36.2372 24.066 35.9342 26.415 35.328C28.764 34.6839 30.753 33.7936 32.3822 32.657L35.2237 39.5902Z" fill="#FF9369"/>
</svg>
