<svg width="18" height="18" viewBox="0 0 18 18" fill="none" xmlns="http://www.w3.org/2000/svg">
<g clip-path="url(#clip0_37_9)">
<path d="M12.9885 0.05775C13.902 0.09975 14.5335 0.234 15.117 0.4605C15.6703 0.667358 16.1711 0.993593 16.584 1.416C17.0064 1.82887 17.3326 2.32974 17.5395 2.883C17.766 3.46725 17.9003 4.098 17.9423 5.0115C17.994 6.144 18 6.543 18 9C18 11.457 17.994 11.856 17.9423 12.9885C17.9003 13.902 17.766 14.5335 17.5395 15.1177C17.3325 15.6707 17.0063 16.1714 16.584 16.584C16.1712 17.0064 15.6703 17.3327 15.117 17.5395C14.5328 17.766 13.902 17.9003 12.9885 17.9423C11.856 17.994 11.4577 18 9 18C6.54225 18 6.14325 17.994 5.0115 17.9423C4.098 17.9003 3.4665 17.766 2.88225 17.5395C2.32925 17.3326 1.82863 17.0063 1.416 16.584C0.993593 16.1711 0.667358 15.6703 0.4605 15.117C0.234 14.5328 0.09975 13.902 0.05775 12.9885C0.006 11.8575 0 11.4585 0 9C0 6.54225 0.006 6.1425 0.05775 5.0115C0.09975 4.098 0.234 3.4665 0.4605 2.883C0.667358 2.32974 0.993593 1.82887 1.416 1.416C1.82865 0.993685 2.32926 0.667456 2.88225 0.4605C3.46725 0.234 4.098 0.09975 5.0115 0.05775C6.1425 0.006 6.5415 0 9 0C11.4577 0 11.8575 0.006 12.9885 0.05775ZM9 2.00025C6.57 2.00025 6.198 2.0055 5.10225 2.05575C4.407 2.08725 3.99 2.17575 3.60675 2.325C3.31258 2.43167 3.04678 2.60434 2.82975 2.82975C2.60386 3.04638 2.43111 3.31231 2.325 3.60675C2.1765 3.98925 2.08725 4.407 2.05575 5.10225C2.0055 6.198 2.00025 6.57 2.00025 9C2.00025 11.43 2.0055 11.802 2.05575 12.8978C2.08725 13.593 2.17575 14.01 2.325 14.3925C2.4525 14.7195 2.5875 14.9272 2.82975 15.1702C3.07275 15.4132 3.2805 15.5482 3.60675 15.675C3.98925 15.8235 4.407 15.9128 5.10225 15.9443C6.19875 15.9945 6.57075 15.9998 9 15.9998C11.43 15.9998 11.8013 15.9945 12.8978 15.9443C13.593 15.9128 14.01 15.8242 14.3932 15.675C14.6874 15.5683 14.9532 15.3957 15.1702 15.1702C15.4132 14.9272 15.5482 14.7195 15.675 14.3932C15.8235 14.0107 15.9128 13.593 15.9443 12.8978C15.9945 11.8013 15.9998 11.4293 15.9998 9C15.9998 6.57075 15.9945 6.19875 15.9443 5.10225C15.9128 4.407 15.8242 3.99 15.675 3.6075C15.5689 3.31281 15.3962 3.04663 15.1702 2.82975C14.9534 2.60378 14.6872 2.43103 14.3925 2.325C14.01 2.1765 13.5922 2.08725 12.897 2.05575C11.8012 2.0055 11.4292 2.00025 8.99925 2.00025H9ZM9 13.6665C7.76237 13.6665 6.57542 13.1749 5.70029 12.2997C4.82515 11.4246 4.3335 10.2376 4.3335 9C4.3335 7.76237 4.82515 6.57542 5.70029 5.70029C6.57542 4.82515 7.76237 4.3335 9 4.3335C10.2376 4.3335 11.4246 4.82515 12.2997 5.70029C13.1749 6.57542 13.6665 7.76237 13.6665 9C13.6665 10.2376 13.1749 11.4246 12.2997 12.2997C11.4246 13.1749 10.2376 13.6665 9 13.6665ZM9 11.667C9.70733 11.667 10.3857 11.386 10.8859 10.8859C11.386 10.3857 11.667 9.70733 11.667 9C11.667 8.29267 11.386 7.61431 10.8859 7.11415C10.3857 6.61399 9.70733 6.333 9 6.333C8.29267 6.333 7.61431 6.61399 7.11415 7.11415C6.61399 7.61431 6.333 8.29267 6.333 9C6.333 9.70733 6.61399 10.3857 7.11415 10.8859C7.61431 11.386 8.29267 11.667 9 11.667ZM13.6665 5.33325C13.4013 5.33325 13.1469 5.22788 12.9593 5.04032C12.7717 4.85276 12.6664 4.59837 12.6664 4.33313C12.6664 4.06788 12.7717 3.81349 12.9593 3.62593C13.1469 3.43837 13.4013 3.333 13.6665 3.333C13.9317 3.333 14.1861 3.43837 14.3737 3.62593C14.5613 3.81349 14.6666 4.06788 14.6666 4.33313C14.6666 4.59837 14.5613 4.85276 14.3737 5.04032C14.1861 5.22788 13.9317 5.33325 13.6665 5.33325Z" fill="black"/>
</g>
<defs>
<clipPath id="clip0_37_9">
<rect width="18" height="18" fill="white"/>
</clipPath>
</defs>
</svg>
