<svg xmlns="http://www.w3.org/2000/svg" width="83" height="32" viewBox="0 0 83 32">
  <path id="Path_67" data-name="Path 67" d="M-1540.425,1.269h-.012v-25.9l0-1.009,6.679-.018h16.558v.645h0l.032,22.308h-.006v.329l-18.95.019v-.676h-.016V-19.58l-.005-1.766,9.821-.025h4.831v1.765h0V-7.337h0v.666h-10.349V-16.24h0v-.821h4.953V-15.3h-3.2v6.86h6.832V-19.606h-3.068l-8.06.021V-4.127l15.453-.016-.028-19.753h-14.8l-4.92.013V.232l24.014-.043V-28.228h-28.309V.142h0V1.907h-8.6V.142h6.835V-3.016h-1a3,3,0,0,1-2.557,1.025c-.212,0-.42-.011-.618-.028a3.194,3.194,0,0,1-2.656-1.924L-1552-5.088l.905.821a1.345,1.345,0,0,0,1.085.212,9.712,9.712,0,0,0,.993-.225l.35-.09a3.424,3.424,0,0,1,2.92.706l.091.06h.924v-3.75h-.985a2.982,2.982,0,0,1-2.573,1.047c-.212,0-.42-.011-.618-.028a3.192,3.192,0,0,1-2.656-1.924L-1552-9.4l.905.82a1.342,1.342,0,0,0,1.085.212,9.871,9.871,0,0,0,.993-.224l.35-.091a3.426,3.426,0,0,1,2.92.706l.057.038h.958v-3.723h-.989a2.985,2.985,0,0,1-2.569,1.041c-.212,0-.42-.011-.618-.028a3.194,3.194,0,0,1-2.656-1.924l-.435-1.144.905.821a1.345,1.345,0,0,0,1.085.212,9.713,9.713,0,0,0,.993-.225l.35-.09a3.424,3.424,0,0,1,2.92.706l.065.043h.95V-16h-1a3,3,0,0,1-2.554,1.02c-.212,0-.42-.011-.618-.028a3.192,3.192,0,0,1-2.656-1.924l-.435-1.144.905.82a1.343,1.343,0,0,0,1.085.212,9.713,9.713,0,0,0,.993-.225l.35-.091a3.428,3.428,0,0,1,2.92.706l.1.065h.917v-3.749h-1.018a3.019,3.019,0,0,1-2.541,1c-.212,0-.42-.011-.618-.028a3.194,3.194,0,0,1-2.656-1.924l-.435-1.144.905.821a1.345,1.345,0,0,0,1.085.212,9.712,9.712,0,0,0,.993-.225l.35-.09a3.424,3.424,0,0,1,2.92.706l.127.084h.888v-3.7h-1a3,3,0,0,1-2.556,1.022c-.212,0-.42-.011-.618-.028a3.192,3.192,0,0,1-2.656-1.924L-1552-26.7l.905.821a1.345,1.345,0,0,0,1.085.212,9.712,9.712,0,0,0,.993-.225l.35-.09a3.424,3.424,0,0,1,2.92.706l.094.062h.922v-3.013h-6.835v-1.765h38.661v13.7h4.812V-30h38.661v1.765h-6.835v3.013h.922l.094-.062a3.424,3.424,0,0,1,2.92-.706l.35.09a9.739,9.739,0,0,0,.992.225,1.344,1.344,0,0,0,1.085-.212l.906-.821-.435,1.144a3.194,3.194,0,0,1-2.656,1.924c-.2.018-.405.028-.618.028a3,3,0,0,1-2.555-1.022h-1v3.7h.889l.127-.084a3.424,3.424,0,0,1,2.92-.706l.35.09a9.7,9.7,0,0,0,.992.225,1.344,1.344,0,0,0,1.085-.212l.906-.821-.435,1.144a3.194,3.194,0,0,1-2.656,1.924c-.2.018-.405.028-.618.028a3.018,3.018,0,0,1-2.54-1h-1.018V-16.6h.918l.1-.065a3.428,3.428,0,0,1,2.92-.706l.35.091a9.7,9.7,0,0,0,.992.225,1.342,1.342,0,0,0,1.085-.212l.906-.82-.435,1.144a3.194,3.194,0,0,1-2.656,1.924c-.2.018-.405.028-.618.028a3,3,0,0,1-2.554-1.02h-1v3.747h.95l.065-.043a3.426,3.426,0,0,1,2.92-.707l.35.091a9.7,9.7,0,0,0,.992.225,1.342,1.342,0,0,0,1.085-.212l.906-.82-.435,1.144a3.194,3.194,0,0,1-2.656,1.924c-.2.018-.405.028-.618.028a2.985,2.985,0,0,1-2.569-1.041h-.99v3.723h.958l.058-.038a3.424,3.424,0,0,1,2.92-.706l.35.09a9.7,9.7,0,0,0,.992.225,1.344,1.344,0,0,0,1.085-.212l.906-.821-.435,1.144a3.2,3.2,0,0,1-2.656,1.924c-.2.017-.405.028-.618.028a2.981,2.981,0,0,1-2.572-1.047h-.986v3.75h.925l.091-.06a3.424,3.424,0,0,1,2.92-.706l.35.09a9.7,9.7,0,0,0,.992.225,1.344,1.344,0,0,0,1.085-.212l.906-.821-.435,1.144a3.2,3.2,0,0,1-2.656,1.924c-.2.017-.405.028-.618.028a3,3,0,0,1-2.557-1.025h-1V.135h6.835V1.9h-8.6V.135h0v-28.37h-28.31V.182l24.014.043V-23.89l-4.922-.012h-14.8l-.029,19.753,15.453.016V-19.591l-8.062-.021h-3.066V-8.443h6.833V-15.3h-3.2v-1.765h4.953v.821h0v9.568H-1499.5V-19.612h0v-1.765h4.829l9.823.025,0,1.766h0V-3.042h-.016v.676l-18.95-.02v-.328h-.006l.032-22.308h0v-.645h16.555l6.682.018,0,1.1V1.263h-.012v.731l-26.856-.048V1.94h-.663V-11.054h-4.812v13h-.662v.005L-1540.424,2Zm-8.432-3.875a3.566,3.566,0,0,0,2.308-.41h-1.8V-3.6h1.563a2.428,2.428,0,0,0-1.732-.2l-.347.09a10.249,10.249,0,0,1-1.046.236,2.507,2.507,0,0,1-.659.024A2.7,2.7,0,0,0-1548.857-2.606Zm76.715-.006a2.693,2.693,0,0,0,1.716-.845,2.5,2.5,0,0,1-.658-.024,10.253,10.253,0,0,1-1.046-.236l-.347-.09a2.429,2.429,0,0,0-1.732.2h1.564v.588h-1.8A3.565,3.565,0,0,0-1472.142-2.612Zm-76.715-4.31a3.511,3.511,0,0,0,2.337-.432h-1.834v-.588h1.517a2.417,2.417,0,0,0-1.685-.175l-.347.09a10.286,10.286,0,0,1-1.046.236,2.508,2.508,0,0,1-.659.025A2.7,2.7,0,0,0-1548.857-6.923Zm76.715-.006a2.7,2.7,0,0,0,1.716-.845,2.5,2.5,0,0,1-.658-.024,10.253,10.253,0,0,1-1.046-.236l-.347-.09a2.415,2.415,0,0,0-1.686.175h1.518v.588h-1.833A3.509,3.509,0,0,0-1472.142-6.929Zm-76.715-4.31a3.522,3.522,0,0,0,2.33-.427h-1.827v-.588h1.529a2.42,2.42,0,0,0-1.7-.18l-.347.09a10.33,10.33,0,0,1-1.046.236,2.507,2.507,0,0,1-.659.024A2.7,2.7,0,0,0-1548.857-11.239Zm76.715-.006a2.7,2.7,0,0,0,1.716-.845,2.527,2.527,0,0,1-.658-.024,10.424,10.424,0,0,1-1.046-.236l-.347-.09a2.42,2.42,0,0,0-1.7.18h1.529v.588h-1.826A3.529,3.529,0,0,0-1472.142-11.245Zm-35.952-1.574v-1.708h-4.812v1.708Zm-40.763-2.777a3.582,3.582,0,0,0,2.3-.406h-1.8v-.588h1.573a2.435,2.435,0,0,0-1.742-.2l-.347.09a10.419,10.419,0,0,1-1.046.236,2.534,2.534,0,0,1-.659.024A2.7,2.7,0,0,0-1548.857-15.6Zm76.715-.006a2.7,2.7,0,0,0,1.716-.845,2.527,2.527,0,0,1-.658-.024,10.423,10.423,0,0,1-1.046-.236l-.347-.09a2.434,2.434,0,0,0-1.742.2h1.573v.588h-1.8A3.582,3.582,0,0,0-1472.142-15.6Zm-76.715-4.351a3.627,3.627,0,0,0,2.273-.386h-1.77v-.588h1.612a2.446,2.446,0,0,0-1.78-.22l-.347.09a10.331,10.331,0,0,1-1.046.236,2.507,2.507,0,0,1-.659.024A2.7,2.7,0,0,0-1548.857-19.953Zm76.715-.006a2.7,2.7,0,0,0,1.716-.845,2.5,2.5,0,0,1-.658-.024,10.253,10.253,0,0,1-1.046-.236l-.347-.09a2.447,2.447,0,0,0-1.78.22h1.611v.589h-1.77A3.632,3.632,0,0,0-1472.142-19.959Zm-76.715-4.26a3.575,3.575,0,0,0,2.3-.408h-1.8v-.589h1.568a2.433,2.433,0,0,0-1.737-.2l-.347.09a10.33,10.33,0,0,1-1.046.236,2.507,2.507,0,0,1-.659.024A2.7,2.7,0,0,0-1548.857-24.219Zm76.715-.006a2.7,2.7,0,0,0,1.716-.845,2.5,2.5,0,0,1-.658-.024,10.253,10.253,0,0,1-1.046-.236l-.347-.09a2.432,2.432,0,0,0-1.736.2h1.568v.589h-1.8A3.576,3.576,0,0,0-1472.142-24.226Z" transform="translate(1552 30)" fill="#FEFF59"/>
</svg>
