<svg width="24" height="19" viewBox="0 0 24 19" fill="none" xmlns="http://www.w3.org/2000/svg">
<path fill-rule="evenodd" clip-rule="evenodd" d="M0 6.57692C0 6.38311 0.0790178 6.19724 0.21967 6.06019C0.360322 5.92314 0.551088 5.84615 0.75 5.84615H17.712C17.9109 5.84615 18.1017 5.92314 18.2423 6.06019C18.383 6.19724 18.462 6.38311 18.462 6.57692C18.462 6.77074 18.383 6.95661 18.2423 7.09366C18.1017 7.2307 17.9109 7.30769 17.712 7.30769H0.75C0.551088 7.30769 0.360322 7.2307 0.21967 7.09366C0.0790178 6.95661 0 6.77074 0 6.57692ZM0 0.730769C0 0.536957 0.0790178 0.351083 0.21967 0.214037C0.360322 0.0769917 0.551088 0 0.75 0H23.25C23.4489 0 23.6397 0.0769917 23.7803 0.214037C23.921 0.351083 24 0.536957 24 0.730769C24 0.924581 23.921 1.11046 23.7803 1.2475C23.6397 1.38455 23.4489 1.46154 23.25 1.46154H0.75C0.551088 1.46154 0.360322 1.38455 0.21967 1.2475C0.0790178 1.11046 0 0.924581 0 0.730769ZM0 12.4231C0 12.2293 0.0790178 12.0434 0.21967 11.9063C0.360322 11.7693 0.551088 11.6923 0.75 11.6923H23.25C23.4489 11.6923 23.6397 11.7693 23.7803 11.9063C23.921 12.0434 24 12.2293 24 12.4231C24 12.6169 23.921 12.8028 23.7803 12.9398C23.6397 13.0769 23.4489 13.1538 23.25 13.1538H0.75C0.551088 13.1538 0.360322 13.0769 0.21967 12.9398C0.0790178 12.8028 0 12.6169 0 12.4231ZM0 18.2692C0 18.0754 0.0790178 17.8895 0.21967 17.7525C0.360322 17.6155 0.551088 17.5385 0.75 17.5385H17.712C17.9109 17.5385 18.1017 17.6155 18.2423 17.7525C18.383 17.8895 18.462 18.0754 18.462 18.2692C18.462 18.463 18.383 18.6489 18.2423 18.786C18.1017 18.923 17.9109 19 17.712 19H0.75C0.551088 19 0.360322 18.923 0.21967 18.786C0.0790178 18.6489 0 18.463 0 18.2692Z" fill="#2D5559"/>
</svg>
