<svg width="18" height="18" viewBox="0 0 18 18" fill="none" xmlns="http://www.w3.org/2000/svg">
<path d="M14.2806 2.82C13.4959 2.03962 13.0634 1.03743 13.0638 0H9.51658V12.4C9.48922 13.071 9.16401 13.7066 8.60942 14.1729C8.05484 14.6393 7.31416 14.8999 6.54337 14.9C4.91326 14.9 3.55867 13.74 3.55867 12.3C3.55867 10.58 5.46429 9.29 7.4273 9.82V6.66C3.46684 6.2 0 8.88 0 12.3C0 15.63 3.16837 18 6.53189 18C10.1365 18 13.0638 15.45 13.0638 12.3V6.01C14.5022 6.90985 16.2291 7.39265 18 7.39V4.3C18 4.3 15.8418 4.39 14.2806 2.82Z" fill="black"/>
</svg>
